HIERARCHY
ROOT Hips
{
	OFFSET 0.000000 0.000000 0.000000 
	CHANNELS 6 Xposition Yposition Zposition Zrotation Yrotation Xrotation
	JOINT LeftUpLeg
	{
		OFFSET 1.363060 -1.794630 0.839290 
		CHANNELS 3 Zrotation Yrotation Xrotation
		JOINT LeftLeg
		{
			OFFSET 2.448110 -6.726130 0.000000 
			CHANNELS 3 Zrotation Yrotation Xrotation
			JOINT LeftFoot
			{
				OFFSET 2.562200 -7.039590 0.000000 
				CHANNELS 3 Zrotation Yrotation Xrotation
				JOINT LeftToeBase
				{
					OFFSET 0.157640 -0.433110 2.322550 
					CHANNELS 3 Zrotation Yrotation Xrotation
					End Site
					{
						OFFSET 0.000000 0.000000 0.000000 
					}
				}
			}
		}
	}
	JOINT RightUpLeg
	{
		OFFSET -1.305520 -1.794630 0.839290 
		CHANNELS 3 Zrotation Yrotation Xrotation
		JOINT RightLeg
		{
			OFFSET -2.542530 -6.985550 0.000000 
			CHANNELS 3 Zrotation Yrotation Xrotation
			JOINT RightFoot
			{
				OFFSET -2.568260 -7.056230 0.000000 
				CHANNELS 3 Zrotation Yrotation Xrotation
				JOINT RightToeBase
				{
					OFFSET -0.164730 -0.452590 2.363150 
					CHANNELS 3 Zrotation Yrotation Xrotation
					End Site
					{
						OFFSET 0.000000 0.000000 0.000000 
					}
				}
			}
		}
	}
	JOINT Spine
	{
		OFFSET 0.028270 2.035590 -0.193380 
		CHANNELS 3 Zrotation Yrotation Xrotation
		JOINT Spine1
		{
			OFFSET 0.056720 2.048850 -0.042750 
			CHANNELS 3 Zrotation Yrotation Xrotation
			JOINT Neck1
			{
				OFFSET -0.054170 1.746240 0.172020 
				CHANNELS 3 Zrotation Yrotation Xrotation
				JOINT Head
				{
					OFFSET 0.104070 1.761360 -0.123970 
					CHANNELS 3 Zrotation Yrotation Xrotation
					End Site
					{
						OFFSET 0.000000 0.000000 0.000000 
					}
				}
			}
			JOINT LeftArm
			{
				OFFSET 3.362410 1.200890 -0.311210 
				CHANNELS 3 Zrotation Yrotation Xrotation
				JOINT LeftForeArm
				{
					OFFSET 4.983000 -0.000000 -0.000000 
					CHANNELS 3 Zrotation Yrotation Xrotation
					JOINT LeftHand
					{
						OFFSET 3.483560 -0.000000 -0.000000 
						CHANNELS 3 Zrotation Yrotation Xrotation
						JOINT LeftHandIndex1
						{
							OFFSET 0.715260 -0.000000 -0.000000 
							CHANNELS 3 Zrotation Yrotation Xrotation
							End Site
							{
								OFFSET 0.000000 0.000000 0.000000 
							}
						}
					}
				}
			}
			JOINT RightArm
			{
				OFFSET -3.136600 1.374050 -0.404650 
				CHANNELS 3 Zrotation Yrotation Xrotation
				JOINT RightForeArm
				{
					OFFSET -5.241900 -0.000000 -0.000000 
					CHANNELS 3 Zrotation Yrotation Xrotation
					JOINT RightHand
					{
						OFFSET -3.444170 -0.000000 -0.000000 
						CHANNELS 3 Zrotation Yrotation Xrotation
						JOINT RightHandIndex1
						{
							OFFSET -0.622530 -0.000000 -0.000000 
							CHANNELS 3 Zrotation Yrotation Xrotation
							End Site
							{
								OFFSET 0.000000 0.000000 0.000000 
							}
						}
					}
				}
			}
		}
	}
}
MOTION
Frames: 16
Frame Time: 0.041667
1.213020 6.743527 -2.009831 2.586515 0.811708 -31.793283 -0.655505 18.182268 -78.968771 33.389599 14.520655 133.262452 1.925072 -29.438886 -14.866500 0.390800 -4.014400 -11.117200 0.694589 -9.311495 -86.639747 -33.352639 -12.776857 134.786476 -1.381538 6.341322 -5.514034 -2.346500 -9.553200 27.541700 0.014702 0.911070 7.230083 3.286703 -0.193398 -7.043244 0.915751 3.624907 1.776596 -0.739900 1.516300 4.336700 -90.034057 -29.871445 40.543232 72.277106 -61.604217 -41.698869 0.107877 0.591896 14.565191 -7.125000 0.000000 0.000000 80.719049 35.668650 44.513971 -62.885985 63.739042 -35.768734 1.097766 -1.109349 14.083940 7.125000 0.000000 0.000000 
1.212718 6.746142 -2.003193 2.604858 0.789006 -31.563387 -0.699859 18.125585 -79.223544 33.397654 14.509097 133.309556 1.917126 -29.453407 -14.829098 0.377900 -3.948300 -10.931400 0.772494 -9.304385 -86.909880 -33.367157 -12.765353 134.835004 -1.375229 6.259917 -5.626664 -2.250000 -9.368500 26.954900 -0.006597 0.905204 7.222859 3.288202 -0.195104 -7.121041 0.608973 3.627429 1.824235 -0.871000 1.504300 4.350200 -89.852089 -29.486792 40.441259 74.770855 -61.839870 -43.604575 0.128746 0.634180 13.289738 -7.125000 0.000000 0.000000 80.494093 35.620078 44.387267 -64.032492 63.982956 -36.618957 1.132482 -1.087826 13.299720 7.125000 0.000000 0.000000 
1.212115 6.747852 -1.994141 2.577946 0.744908 -31.331000 -0.699690 18.146004 -79.502367 33.412281 14.492162 133.375273 1.913224 -29.475849 -14.821740 0.375700 -3.936700 -10.898700 0.906241 -9.318971 -87.174184 -33.380777 -12.754325 134.882335 -1.376957 6.248376 -5.707515 -2.210500 -9.291400 26.711100 -0.012746 0.917331 7.210365 3.271550 -0.189318 -7.201924 0.576177 3.680091 1.830247 -0.883300 1.530900 4.329300 -89.623614 -29.143798 40.417716 77.036700 -61.994438 -45.344765 0.132691 0.661082 12.257007 -7.125000 0.000000 0.000000 80.263147 35.625379 44.207886 -64.945085 64.165964 -37.304162 1.157516 -1.070687 12.802916 7.125000 0.000000 0.000000 
1.210304 6.751674 -1.985591 2.474623 0.712352 -31.155688 -0.630046 18.146930 -79.670297 33.427094 14.477300 133.438384 1.910600 -29.450228 -14.800929 0.368200 -3.897400 -10.788200 1.032193 -9.364374 -87.339899 -33.381863 -12.751006 134.894439 -1.388228 6.365863 -5.596193 -2.318100 -9.499500 27.370500 0.011066 0.881836 7.208321 3.301005 -0.208375 -7.254724 0.626775 3.818889 1.789520 -0.856500 1.604500 4.270800 -89.327076 -28.763672 40.312590 79.086228 -62.084737 -46.941156 0.135965 0.670087 11.509029 -7.125000 0.000000 0.000000 80.154935 35.580600 44.118091 -65.875531 64.343329 -37.990075 1.184734 -1.055996 12.587794 7.125000 0.000000 0.000000 
1.207589 6.757809 -1.977243 2.259667 0.615385 -30.987892 -0.398121 18.240084 -79.836482 33.447546 14.460085 133.500810 1.913477 -29.517380 -14.855105 0.367200 -3.892700 -10.774900 1.326699 -9.325630 -87.443815 -33.379130 -12.755368 134.878738 -1.388701 6.378806 -5.565456 -2.399200 -9.652300 27.857800 0.058111 0.856921 7.198759 3.294696 -0.221703 -7.303701 0.549281 3.958725 1.668102 -0.887700 1.671800 4.180700 -89.108868 -28.403170 40.220685 80.834228 -62.127731 -48.311854 0.140586 0.658739 10.899605 -7.125000 0.000000 0.000000 80.144238 35.434011 44.039894 -66.957117 64.533993 -38.779118 1.217037 -1.042523 12.532246 7.125000 0.000000 0.000000 
1.202057 6.766158 -1.976438 0.651950 -0.358898 -30.513254 1.633184 19.390620 -80.917695 33.532137 14.384655 133.713980 1.775628 -30.555668 -14.672530 0.383100 -3.975000 -11.006400 3.714145 -7.845182 -87.484297 -33.343381 -12.822344 134.615394 -1.244938 5.237866 -5.873429 -2.356600 -9.572400 27.602800 0.388673 1.072884 7.083558 2.767499 -0.123608 -7.472252 0.574353 4.054114 1.625239 -0.887100 1.724600 4.125200 -88.910776 -28.172004 40.239019 82.211513 -62.141383 -49.395574 0.139129 0.634519 10.412096 -7.125000 0.000000 0.000000 80.173338 35.242754 43.868247 -67.926534 64.687356 -39.488507 1.246984 -1.031830 12.572743 7.125000 0.000000 0.000000 
1.197631 6.769879 -1.972616 0.246422 -0.620742 -30.222946 2.123173 19.678191 -81.387358 33.551799 14.362485 133.781202 1.715589 -30.850670 -14.518094 0.382300 -3.970800 -10.994500 4.369877 -7.407692 -87.704430 -33.332602 -12.839628 134.541121 -1.199899 4.900835 -5.947110 -2.276000 -9.418700 27.113900 0.476210 1.139513 7.035316 2.654324 -0.095134 -7.553382 0.722721 4.128742 1.730333 -0.834400 1.774200 4.131100 -88.710417 -28.016513 40.302337 83.382380 -62.137587 -50.319733 0.132244 0.601986 10.136702 -7.125000 0.000000 0.000000 80.206859 35.055818 43.673984 -68.835962 64.819550 -40.154057 1.276125 -1.020300 12.515964 7.125000 0.000000 0.000000 
1.195217 6.771287 -1.966481 0.396291 -0.574767 -29.991624 1.904758 19.596237 -81.617362 33.550422 14.356687 133.809845 1.699561 -30.814997 -14.410599 0.365200 -3.881700 -10.744100 4.237043 -7.489357 -88.073134 -33.344368 -12.823896 134.599402 -1.211174 4.994818 -5.890932 -2.240600 -9.350200 26.897100 0.457517 1.139551 6.999942 2.729232 -0.095018 -7.600971 0.739746 4.183123 1.839897 -0.830100 1.806300 4.141900 -88.596234 -27.810495 40.370657 84.523344 -62.122030 -51.220288 0.126814 0.552883 10.041790 -7.125000 0.000000 0.000000 80.238749 34.872363 43.466720 -69.777801 64.946317 -40.845144 1.307128 -1.007299 12.379242 7.125000 0.000000 0.000000 
1.194915 6.773098 -1.959038 0.454716 -0.559225 -29.776273 1.795465 19.567192 -81.843236 33.554716 14.346513 133.853441 1.679441 -30.809119 -14.301315 0.341200 -3.753700 -10.384700 4.203470 -7.596509 -88.375603 -33.358173 -12.808256 134.662934 -1.227698 5.119491 -5.857808 -2.265400 -9.398300 27.049300 0.443673 1.133230 6.943688 2.740443 -0.096030 -7.675240 0.681024 4.248239 1.833644 -0.855700 1.838700 4.101000 -88.547820 -27.623157 40.435086 85.419819 -62.101466 -51.930535 0.119649 0.502018 10.043865 -7.125000 0.000000 0.000000 80.308624 34.725285 43.240859 -70.577103 65.044060 -41.435767 1.334503 -0.996914 12.378876 7.125000 0.000000 0.000000 
1.194614 6.773802 -1.952097 0.489048 -0.513477 -29.610698 1.716861 19.465814 -82.010007 33.557631 14.339468 133.889265 1.667256 -30.764273 -14.210586 0.324100 -3.659400 -10.120200 4.164477 -7.721631 -88.604620 -33.370163 -12.795297 134.716902 -1.240890 5.215026 -5.849897 -2.280000 -9.426400 27.138500 0.437983 1.096573 6.942691 2.775306 -0.113520 -7.667502 0.669633 4.325849 1.851599 -0.862100 1.879700 4.076500 -88.535590 -27.572286 40.450660 85.951556 -62.083356 -52.361066 0.109917 0.465028 10.094346 -7.125000 0.000000 0.000000 80.404734 34.684787 43.047120 -71.143488 65.109324 -41.854936 1.354484 -0.990275 12.471865 7.125000 0.000000 0.000000 
1.195418 6.774003 -1.945560 0.591698 -0.501624 -29.442673 1.585302 19.385525 -82.174591 33.561763 14.331967 133.927686 1.663888 -30.702234 -14.157399 0.318100 -3.625400 -10.025100 4.067388 -7.753920 -88.846285 -33.380973 -12.782446 134.766363 -1.246115 5.258949 -5.824929 -2.295900 -9.456900 27.235300 0.437432 1.074793 6.992094 2.855968 -0.126311 -7.560746 0.640072 4.427646 1.862219 -0.873500 1.931300 4.053100 -88.565495 -27.573383 40.427140 86.315438 -62.067615 -52.661604 0.101473 0.440291 10.192736 -7.125000 0.000000 0.000000 80.491415 34.723037 42.914814 -71.599904 65.162649 -42.193436 1.370225 -0.985138 12.453441 7.125000 0.000000 0.000000 
1.196927 6.775110 -1.939726 0.713286 -0.548995 -29.295877 1.466803 19.395358 -82.303441 33.566898 14.323930 133.964750 1.656000 -30.676649 -14.103749 0.310100 -3.580300 -9.898800 3.955023 -7.687561 -89.052476 -33.384737 -12.773074 134.794122 -1.257414 5.365385 -5.729066 -2.345700 -9.551800 27.537000 0.450037 1.079644 7.023414 2.949305 -0.127068 -7.487026 0.582839 4.555278 1.845578 -0.887700 1.993500 4.014600 -88.581732 -27.530024 40.401644 86.629893 -62.053281 -52.920998 0.091568 0.421346 10.266071 -7.125000 0.000000 0.000000 80.530916 34.746356 42.840448 -72.106531 65.221142 -42.569425 1.386123 -0.979045 12.261350 7.125000 0.000000 0.000000 
1.199542 6.775914 -1.935803 0.786025 -0.560612 -29.187439 1.372273 19.313992 -82.392612 33.571515 14.319006 133.993009 1.670577 -30.570804 -14.123278 0.311700 -3.589100 -9.923300 3.830700 -7.665071 -89.213822 -33.383629 -12.767714 134.806166 -1.271453 5.504180 -5.590483 -2.382800 -9.621600 27.759900 0.468413 1.071127 7.023015 3.021120 -0.133202 -7.490108 0.576966 4.633542 1.967754 -0.879300 2.034900 4.037400 -88.587366 -27.456873 40.422736 86.912112 -62.040802 -53.146727 0.080756 0.406195 10.234074 -7.125000 0.000000 0.000000 80.538002 34.745312 42.772534 -72.587481 65.272773 -42.926233 1.400816 -0.972818 12.094937 7.125000 0.000000 0.000000 
1.202861 6.776216 -1.931579 0.842228 -0.538434 -29.098514 1.264879 19.201991 -82.466715 33.578441 14.314277 134.021438 1.708301 -30.409904 -14.236583 0.319300 -3.632100 -10.043900 3.724558 -7.711060 -89.352444 -33.386754 -12.761270 134.828851 -1.279017 5.581105 -5.508174 -2.398300 -9.650600 27.852500 0.482272 1.054462 7.016975 3.070113 -0.141882 -7.497556 0.507307 4.701930 2.066272 -0.898400 2.068500 4.050200 -88.642240 -27.367132 40.485529 87.190609 -62.028642 -53.359247 0.075246 0.401784 10.150330 -7.125000 0.000000 0.000000 80.545986 34.734287 42.715605 -73.012738 65.315370 -43.240206 1.414852 -0.966770 12.048143 7.125000 0.000000 0.000000 
1.203867 6.776920 -1.926147 0.849998 -0.582371 -29.081178 1.279965 19.256240 -82.463282 33.590291 14.306667 134.050105 1.740402 -30.370190 -14.391742 0.326100 -3.670500 -10.151500 3.772970 -7.699585 -89.357651 -33.392368 -12.756249 134.855816 -1.253245 5.451083 -5.281792 -2.204800 -9.280200 26.675800 0.497429 1.042502 6.999759 3.093071 -0.148283 -7.528121 0.429957 4.833588 2.043742 -0.918900 2.132600 3.997500 -88.761283 -27.232921 40.509864 87.486091 -62.013993 -53.584988 0.072359 0.405330 10.192287 -7.125000 0.000000 0.000000 80.582083 34.697530 42.751881 -73.365621 65.349417 -43.491020 1.427442 -0.962593 12.035012 7.125000 0.000000 0.000000 
1.204873 6.778429 -1.921219 0.821208 -0.701161 -29.103281 1.388559 19.407150 -82.415349 33.606555 14.296003 134.086787 1.767105 -30.380182 -14.548856 0.334000 -3.713900 -10.273200 3.923849 -7.602110 -89.276201 -33.397752 -12.754940 134.869830 -1.216468 5.215970 -5.148026 -1.955500 -8.772800 25.087300 0.508238 1.043651 6.994781 3.079015 -0.149546 -7.544460 0.398085 4.957056 2.068155 -0.922300 2.195600 3.965400 -88.934247 -27.142818 40.514710 87.621558 -62.005614 -53.683485 0.066831 0.409367 10.414173 -7.125000 0.000000 0.000000 80.650996 34.674945 42.841516 -73.527430 65.364922 -43.594691 1.434044 -0.962452 12.033436 7.125000 0.000000 0.000000 
